<svg width="335" height="335" viewBox="0 0 335 335" fill="none" xmlns="http://www.w3.org/2000/svg">
<rect width="335" height="335" rx="20" fill="black"/>
<path d="M281.187 157.343L270.783 157.983C270.605 157.094 270.223 156.293 269.636 155.582C269.049 154.853 268.275 154.275 267.315 153.848C266.373 153.403 265.243 153.181 263.927 153.181C262.167 153.181 260.682 153.555 259.472 154.302C258.263 155.031 257.658 156.009 257.658 157.236C257.658 158.214 258.049 159.041 258.832 159.717C259.614 160.393 260.957 160.935 262.86 161.344L270.276 162.838C274.26 163.656 277.23 164.972 279.186 166.786C281.142 168.6 282.121 170.983 282.121 173.936C282.121 176.621 281.329 178.977 279.746 181.005C278.181 183.032 276.029 184.615 273.291 185.753C270.57 186.874 267.431 187.434 263.874 187.434C258.45 187.434 254.128 186.305 250.909 184.046C247.708 181.77 245.832 178.675 245.28 174.763L256.458 174.176C256.796 175.83 257.614 177.092 258.912 177.964C260.21 178.817 261.873 179.244 263.901 179.244C265.892 179.244 267.493 178.862 268.702 178.097C269.929 177.315 270.552 176.31 270.57 175.083C270.552 174.051 270.116 173.206 269.262 172.548C268.409 171.873 267.093 171.357 265.314 171.001L258.218 169.587C254.217 168.787 251.238 167.4 249.282 165.426C247.343 163.452 246.374 160.935 246.374 157.876C246.374 155.244 247.085 152.977 248.508 151.074C249.949 149.171 251.967 147.704 254.564 146.672C257.178 145.641 260.237 145.125 263.74 145.125C268.916 145.125 272.988 146.219 275.958 148.406C278.946 150.594 280.689 153.572 281.187 157.343Z" fill="white"/>
<path d="M239.38 157.343L228.976 157.983C228.798 157.094 228.416 156.293 227.829 155.582C227.242 154.853 226.468 154.275 225.508 153.848C224.565 153.403 223.436 153.181 222.12 153.181C220.359 153.181 218.874 153.555 217.665 154.302C216.456 155.031 215.851 156.009 215.851 157.236C215.851 158.214 216.242 159.041 217.025 159.717C217.807 160.393 219.15 160.935 221.053 161.344L228.469 162.838C232.453 163.656 235.423 164.972 237.379 166.786C239.335 168.6 240.313 170.983 240.313 173.936C240.313 176.621 239.522 178.977 237.939 181.005C236.374 183.032 234.222 184.615 231.484 185.753C228.763 186.874 225.624 187.434 222.067 187.434C216.642 187.434 212.321 186.305 209.102 184.046C205.901 181.77 204.024 178.675 203.473 174.763L214.651 174.176C214.989 175.83 215.807 177.092 217.105 177.964C218.403 178.817 220.066 179.244 222.093 179.244C224.085 179.244 225.686 178.862 226.895 178.097C228.122 177.315 228.745 176.31 228.763 175.083C228.745 174.051 228.309 173.206 227.455 172.548C226.602 171.873 225.286 171.357 223.507 171.001L216.411 169.587C212.41 168.787 209.431 167.4 207.475 165.426C205.536 163.452 204.567 160.935 204.567 157.876C204.567 155.244 205.278 152.977 206.701 151.074C208.142 149.171 210.16 147.704 212.757 146.672C215.371 145.641 218.43 145.125 221.933 145.125C227.109 145.125 231.181 146.219 234.151 148.406C237.139 150.594 238.882 153.572 239.38 157.343Z" fill="white"/>
<path d="M168.662 202C167.222 202 165.87 201.884 164.607 201.653C163.362 201.44 162.331 201.164 161.513 200.826L164.074 192.343C165.408 192.752 166.608 192.974 167.675 193.01C168.76 193.046 169.694 192.797 170.476 192.263C171.276 191.73 171.925 190.823 172.423 189.542L173.09 187.808L158.392 145.659H170.343L178.826 175.75H179.253L187.816 145.659H199.847L183.921 191.063C183.156 193.268 182.116 195.189 180.8 196.825C179.502 198.479 177.857 199.75 175.865 200.639C173.873 201.546 171.472 202 168.662 202Z" fill="white"/>
<path d="M129.362 187.301C126.25 187.301 123.431 186.5 120.906 184.9C118.398 183.281 116.406 180.907 114.93 177.777C113.472 174.629 112.743 170.77 112.743 166.199C112.743 161.504 113.499 157.601 115.01 154.488C116.522 151.358 118.531 149.02 121.039 147.472C123.564 145.907 126.33 145.125 129.335 145.125C131.63 145.125 133.541 145.516 135.071 146.299C136.618 147.063 137.863 148.024 138.806 149.18C139.766 150.318 140.495 151.438 140.993 152.541H141.34V132H152.677V186.634H141.473V180.071H140.993C140.46 181.209 139.704 182.339 138.726 183.459C137.765 184.562 136.511 185.478 134.964 186.207C133.435 186.936 131.567 187.301 129.362 187.301ZM132.963 178.257C134.795 178.257 136.343 177.759 137.605 176.763C138.886 175.75 139.864 174.336 140.54 172.522C141.233 170.708 141.58 168.583 141.58 166.146C141.58 163.71 141.242 161.593 140.566 159.797C139.891 158.001 138.912 156.614 137.632 155.635C136.351 154.657 134.795 154.168 132.963 154.168C131.096 154.168 129.522 154.675 128.242 155.689C126.961 156.703 125.992 158.108 125.334 159.904C124.676 161.7 124.347 163.781 124.347 166.146C124.347 168.529 124.676 170.637 125.334 172.468C126.01 174.282 126.979 175.705 128.242 176.737C129.522 177.75 131.096 178.257 132.963 178.257Z" fill="white"/>
<path d="M55.5804 171.618C53.8608 168.01 53.0001 163.847 53 159.127C53 154.407 53.8607 150.235 55.5804 146.609L55.5804 171.618Z" fill="white"/>
<path d="M62.0318 179.83C61.3522 179.278 60.7067 178.691 60.0959 178.069L60.0959 140.174C60.7068 139.555 61.3521 138.97 62.0318 138.418L62.0318 179.83Z" fill="white"/>
<path d="M109.125 159.127C109.125 164.628 107.946 169.374 105.587 173.363C103.251 177.377 99.9714 180.469 95.7485 182.641C91.5492 184.813 86.642 185.899 81.0272 185.899C78.1745 185.899 75.4984 185.613 72.9987 185.043L72.9987 177.513L68.4824 177.513L68.4824 183.625C67.8226 183.356 67.1774 183.063 66.5473 182.746L66.5473 165.151C66.6292 165.257 66.7137 165.363 66.801 165.466C68.24 167.142 70.1982 168.405 72.6752 169.255C75.1523 170.129 77.9718 170.565 81.1331 170.565C84.2944 170.565 87.1139 170.129 89.591 169.255C92.068 168.405 94.0262 167.142 95.4653 165.466C96.9043 163.79 97.6236 161.7 97.6237 159.198C97.6237 156.672 96.9043 154.547 95.4653 152.824C94.0262 151.124 92.0681 149.837 89.591 148.963C87.1139 148.113 84.2944 147.688 81.1331 147.688C77.9718 147.688 75.1523 148.113 72.6752 148.963C70.1982 149.837 68.24 151.124 66.801 152.824C66.7137 152.93 66.6292 153.038 66.5473 153.147L66.5473 135.508C67.1774 135.191 67.8226 134.898 68.4824 134.629L68.4824 143.321L72.9987 143.321L72.9987 133.211C75.4984 132.641 78.1745 132.354 81.0272 132.354C86.642 132.355 91.5492 133.44 95.7485 135.612C99.9714 137.784 103.251 140.865 105.587 144.855C107.946 148.869 109.125 153.626 109.125 159.127Z" fill="white"/>
</svg>
