<svg width="335" height="335" viewBox="0 0 335 335" fill="none" xmlns="http://www.w3.org/2000/svg">
<rect width="335" height="335" fill="white"/>
<path d="M284.708 157.067L274.006 157.726C273.823 156.811 273.43 155.988 272.826 155.256C272.223 154.506 271.427 153.912 270.439 153.472C269.47 153.015 268.308 152.787 266.955 152.787C265.144 152.787 263.616 153.171 262.372 153.939C261.128 154.689 260.506 155.695 260.506 156.957C260.506 157.963 260.909 158.814 261.714 159.509C262.519 160.204 263.9 160.762 265.857 161.183L273.485 162.719C277.583 163.561 280.637 164.914 282.65 166.78C284.662 168.646 285.668 171.097 285.668 174.134C285.668 176.896 284.854 179.32 283.226 181.405C281.616 183.491 279.403 185.119 276.586 186.289C273.787 187.442 270.558 188.018 266.9 188.018C261.32 188.018 256.875 186.856 253.564 184.533C250.272 182.192 248.342 179.009 247.775 174.985L259.272 174.381C259.619 176.082 260.461 177.381 261.796 178.277C263.131 179.155 264.842 179.594 266.927 179.594C268.976 179.594 270.622 179.201 271.866 178.414C273.128 177.61 273.769 176.576 273.787 175.314C273.769 174.253 273.32 173.384 272.442 172.707C271.564 172.012 270.211 171.482 268.381 171.116L261.083 169.661C256.967 168.838 253.903 167.411 251.891 165.381C249.897 163.35 248.9 160.762 248.9 157.616C248.9 154.908 249.631 152.576 251.095 150.619C252.577 148.662 254.653 147.152 257.324 146.091C260.013 145.03 263.159 144.5 266.762 144.5C272.086 144.5 276.275 145.625 279.33 147.875C282.403 150.125 284.195 153.189 284.708 157.067Z" fill="#F5008B"/>
<path d="M241.706 157.067L231.005 157.726C230.822 156.811 230.428 155.988 229.825 155.256C229.221 154.506 228.425 153.912 227.437 153.472C226.468 153.015 225.306 152.787 223.953 152.787C222.142 152.787 220.614 153.171 219.37 153.939C218.127 154.689 217.505 155.695 217.505 156.957C217.505 157.963 217.907 158.814 218.712 159.509C219.517 160.204 220.898 160.762 222.855 161.183L230.483 162.719C234.581 163.561 237.636 164.914 239.648 166.78C241.66 168.646 242.666 171.097 242.666 174.134C242.666 176.896 241.852 179.32 240.224 181.405C238.614 183.491 236.401 185.119 233.584 186.289C230.785 187.442 227.556 188.018 223.898 188.018C218.319 188.018 213.874 186.856 210.563 184.533C207.27 182.192 205.34 179.009 204.773 174.985L216.27 174.381C216.617 176.082 217.459 177.381 218.794 178.277C220.13 179.155 221.84 179.594 223.925 179.594C225.974 179.594 227.62 179.201 228.864 178.414C230.126 177.61 230.767 176.576 230.785 175.314C230.767 174.253 230.319 173.384 229.441 172.707C228.562 172.012 227.209 171.482 225.38 171.116L218.081 169.661C213.965 168.838 210.901 167.411 208.889 165.381C206.895 163.35 205.898 160.762 205.898 157.616C205.898 154.908 206.63 152.576 208.093 150.619C209.575 148.662 211.651 147.152 214.322 146.091C217.011 145.03 220.157 144.5 223.761 144.5C229.084 144.5 233.273 145.625 236.328 147.875C239.401 150.125 241.193 153.189 241.706 157.067Z" fill="#F5008B"/>
<path d="M168.968 203C167.486 203 166.096 202.881 164.797 202.643C163.517 202.424 162.456 202.14 161.614 201.793L164.248 193.067C165.62 193.488 166.855 193.717 167.953 193.753C169.068 193.79 170.029 193.534 170.834 192.985C171.657 192.436 172.324 191.503 172.837 190.186L173.523 188.403L158.404 145.049H170.696L179.422 176H179.861L188.669 145.049H201.044L184.663 191.75C183.876 194.018 182.806 195.994 181.452 197.677C180.117 199.378 178.425 200.686 176.376 201.601C174.328 202.534 171.858 203 168.968 203Z" fill="#F5008B"/>
<path d="M128.545 187.881C125.344 187.881 122.445 187.058 119.847 185.411C117.268 183.747 115.219 181.305 113.701 178.085C112.201 174.847 111.451 170.878 111.451 166.177C111.451 161.347 112.228 157.332 113.783 154.131C115.338 150.911 117.405 148.506 119.984 146.915C122.582 145.305 125.426 144.5 128.518 144.5C130.877 144.5 132.844 144.902 134.417 145.707C136.008 146.494 137.289 147.482 138.258 148.671C139.246 149.841 139.996 150.994 140.508 152.128H140.865V131H152.527V187.195H141.002V180.445H140.508C139.96 181.615 139.182 182.777 138.176 183.93C137.188 185.064 135.899 186.006 134.307 186.756C132.734 187.506 130.813 187.881 128.545 187.881ZM132.249 178.579C134.133 178.579 135.725 178.067 137.024 177.042C138.341 176 139.347 174.545 140.042 172.68C140.755 170.814 141.112 168.628 141.112 166.122C141.112 163.616 140.765 161.439 140.069 159.591C139.374 157.744 138.368 156.317 137.051 155.311C135.734 154.305 134.133 153.802 132.249 153.802C130.329 153.802 128.71 154.323 127.393 155.366C126.076 156.408 125.079 157.853 124.402 159.701C123.725 161.549 123.387 163.689 123.387 166.122C123.387 168.573 123.725 170.741 124.402 172.625C125.097 174.491 126.094 175.954 127.393 177.015C128.71 178.058 130.329 178.579 132.249 178.579Z" fill="#F5008B"/>
<path d="M52.6541 171.75C50.8853 168.039 50 163.757 49.9999 158.902C49.9999 154.047 50.8852 149.755 52.6541 146.027L52.6541 171.75Z" fill="#F5008B"/>
<path d="M59.2898 180.197C58.5908 179.628 57.9268 179.025 57.2986 178.385L57.2986 139.407C57.9269 138.77 58.5907 138.168 59.2898 137.601L59.2898 180.197Z" fill="#F5008B"/>
<path d="M107.729 158.902C107.729 164.56 106.516 169.441 104.089 173.545C101.687 177.673 98.3136 180.854 93.9701 183.088C89.6507 185.322 84.6033 186.439 78.8281 186.439C75.8938 186.439 73.1412 186.145 70.5701 185.558L70.5701 177.813L65.9247 177.813L65.9247 184.1C65.2461 183.823 64.5825 183.522 63.9344 183.195L63.9344 165.098C64.0186 165.207 64.1055 165.316 64.1953 165.422C65.6755 167.146 67.6896 168.445 70.2374 169.319C72.7853 170.218 75.6854 170.667 78.937 170.667C82.1887 170.667 85.0887 170.218 87.6366 169.319C90.1844 168.445 92.1985 167.146 93.6787 165.422C95.1589 163.698 95.8988 161.549 95.8988 158.975C95.8988 156.376 95.1589 154.191 93.6787 152.418C92.1985 150.67 90.1845 149.346 87.6366 148.448C85.0887 147.573 82.1887 147.136 78.937 147.136C75.6854 147.136 72.7853 147.573 70.2374 148.448C67.6896 149.346 65.6755 150.67 64.1953 152.418C64.1055 152.528 64.0186 152.639 63.9344 152.751L63.9344 134.608C64.5825 134.282 65.2461 133.98 65.9247 133.703L65.9247 142.645L70.5701 142.645L70.5701 132.245C73.1412 131.659 75.8938 131.364 78.8281 131.364C84.6033 131.364 89.6507 132.481 93.9701 134.715C98.3136 136.949 101.687 140.118 104.089 144.222C106.516 148.35 107.729 153.244 107.729 158.902Z" fill="#F5008B"/>
</svg>
